<svg xmlns="http://www.w3.org/2000/svg" viewBox="0 0 500 500"><g id="freepik--background-simple--inject-167"><path d="M138.5,85.94C191.6,64.62,228.88,116,238.94,152s34.93,46.07,57.81,33.24S358.61,119,407.8,163,388.73,316.45,283.53,328.24c-58.84,6.6-143.53-16.16-173.21-103.66C92.64,172.45,96,103,138.5,85.94Z" style="fill:#577afa"></path><path d="M138.5,85.94C191.6,64.62,228.88,116,238.94,152s34.93,46.07,57.81,33.24S358.61,119,407.8,163,388.73,316.45,283.53,328.24c-58.84,6.6-143.53-16.16-173.21-103.66C92.64,172.45,96,103,138.5,85.94Z" style="fill:#fff;opacity:0.9;isolation:isolate"></path></g></svg>