<svg xmlns="http://www.w3.org/2000/svg" xmlns:xlink="http://www.w3.org/1999/xlink" viewBox="0 0 500 500"><defs><clipPath id="freepik--clip-path--inject-473"><path d="M173.74,280.67c7.43-3.15,26.73-4.85,35.44,3.88,10,10.06,33.81,12.61,36.88,20C240,312,234.3,323,234.3,323S179.17,291.32,173.74,280.67Z" style="fill:none"></path></clipPath><clipPath id="freepik--clip-path-2--inject-473"><path d="M157.05,285.56c7.11-1.15,20.25,4.67,33.24,14s33.63,30.27,33.63,30.27-11.85,21.68-8.29,29.52c-31.33-4.66-60.24-50.53-60.24-50.53s-12.29-.92-18.33-6.48c2.45-10.2,9.92-19.09,9.92-19.09Z" style="fill:none"></path></clipPath></defs><g id="freepik--background-simple--inject-473"><path d="M290.88,182.62C221.42,153.53,179.12-11.74,90.12,64.06c-63.15,53.79-2.6,212.51,83.59,206,52.17-3.94,43.81-6.11,92.38,28.84,49.23,35.42,101.41,56.72,144.42,10.67,22.26-23.84,24.67-88.58-3.87-125.91C371,137,333.32,200.4,290.88,182.62Z" style="fill:#00A6DB"></path><path d="M290.88,182.62C221.42,153.53,179.12-11.74,90.12,64.06c-63.15,53.79-2.6,212.51,83.59,206,52.17-3.94,43.81-6.11,92.38,28.84,49.23,35.42,101.41,56.72,144.42,10.67,22.26-23.84,24.67-88.58-3.87-125.91C371,137,333.32,200.4,290.88,182.62Z" style="fill:#fff;opacity:0.9"></path></g></svg>