<svg xmlns="http://www.w3.org/2000/svg" viewBox="0 0 750 500"><g id="freepik--Stars--inject-72"><path d="M266.89,217.1l.48.87a6,6,0,0,0,2.33,2.31l.87.47-.87.48a5.86,5.86,0,0,0-2.33,2.3l-.48.87-.48-.87a5.77,5.77,0,0,0-2.32-2.3l-.88-.48.88-.47a5.86,5.86,0,0,0,2.32-2.31Z" style="fill:#fafafa"></path><path d="M342,356.57l.48.87a5.77,5.77,0,0,0,2.32,2.3l.88.48-.88.47A5.73,5.73,0,0,0,342.5,363l-.48.86-.48-.86a5.82,5.82,0,0,0-2.33-2.31l-.87-.47.87-.48a5.86,5.86,0,0,0,2.33-2.3Z" style="fill:#ebebeb"></path><path d="M192.88,443.84l.48.87a5.86,5.86,0,0,0,2.33,2.3l.88.48-.88.47a5.82,5.82,0,0,0-2.33,2.31l-.48.86-.48-.86a5.73,5.73,0,0,0-2.32-2.31l-.88-.47.88-.48a5.77,5.77,0,0,0,2.32-2.3Z" style="fill:#ebebeb"></path><path d="M514.75,57.11l.48.87a5.87,5.87,0,0,0,2.3,2.31l.87.47-.87.47a5.87,5.87,0,0,0-2.3,2.31l-.48.87-.47-.87A5.83,5.83,0,0,0,512,61.23l-.86-.47.86-.47A5.83,5.83,0,0,0,514.28,58Z" style="fill:#455a64"></path><path d="M382.24,395.08l.48.87a5.78,5.78,0,0,0,2.3,2.3l.87.48-.87.47a5.75,5.75,0,0,0-2.3,2.31l-.48.86-.47-.86a5.71,5.71,0,0,0-2.31-2.31l-.87-.47.87-.48a5.75,5.75,0,0,0,2.31-2.3Z" style="fill:#455a64"></path><path d="M105.45,112.39l.48.87a5.83,5.83,0,0,0,2.31,2.31l.86.47-.86.47a5.83,5.83,0,0,0-2.31,2.31l-.48.87-.47-.87a5.83,5.83,0,0,0-2.31-2.31l-.86-.47.86-.47a5.83,5.83,0,0,0,2.31-2.31Z" style="fill:#455a64"></path><path d="M560.29,422.23l.48.87a5.87,5.87,0,0,0,2.3,2.31l.87.47-.87.48a5.78,5.78,0,0,0-2.3,2.3l-.48.87-.47-.87a5.75,5.75,0,0,0-2.31-2.3l-.86-.48.86-.47a5.83,5.83,0,0,0,2.31-2.31Z" style="fill:#455a64"></path><path d="M510,329.91l.47.87a5.87,5.87,0,0,0,2.31,2.3l.87.48-.87.47a5.83,5.83,0,0,0-2.31,2.31l-.47.87-.48-.87a5.75,5.75,0,0,0-2.3-2.31l-.87-.47.87-.48a5.78,5.78,0,0,0,2.3-2.3Z" style="fill:#455a64"></path><path d="M189.2,274.64l.48.87a5.87,5.87,0,0,0,2.3,2.31l.87.47-.87.47a5.87,5.87,0,0,0-2.3,2.31l-.48.87-.47-.87a6,6,0,0,0-2.31-2.31l-.87-.47.87-.47a6,6,0,0,0,2.31-2.31Z" style="fill:#455a64"></path><path d="M615.35,251.48l.24.43a2.89,2.89,0,0,0,1.15,1.15l.44.24-.44.24a2.89,2.89,0,0,0-1.15,1.15l-.24.44-.23-.44a2.85,2.85,0,0,0-1.16-1.15l-.43-.24.43-.24a2.85,2.85,0,0,0,1.16-1.15Z" style="fill:#455a64"></path><path d="M276.71,354.75l.22.44a2.83,2.83,0,0,0,1.11,1.19l.42.26-.44.22a2.89,2.89,0,0,0-1.19,1.11l-.26.42-.22-.44a2.85,2.85,0,0,0-1.11-1.2l-.42-.25.44-.22a2.92,2.92,0,0,0,1.2-1.11Z" style="fill:#455a64"></path><path d="M578.3,142.11l.24.43a2.77,2.77,0,0,0,1.15,1.15l.43.24-.43.24a2.77,2.77,0,0,0-1.15,1.15l-.24.43-.24-.43a2.77,2.77,0,0,0-1.15-1.15l-.43-.24.43-.24a2.77,2.77,0,0,0,1.15-1.15Z" style="fill:#455a64"></path><path d="M285,154.31l.24.44a3,3,0,0,0,1.15,1.15l.44.24-.44.23a3,3,0,0,0-1.15,1.16L285,158l-.23-.43a2.94,2.94,0,0,0-1.16-1.16l-.43-.23.43-.24a3,3,0,0,0,1.16-1.15Z" style="fill:#455a64"></path><path d="M156.87,74.17l.23.44a3,3,0,0,0,1.16,1.15l.43.24-.43.23a2.94,2.94,0,0,0-1.16,1.16l-.23.43-.24-.43a3,3,0,0,0-1.15-1.16L155,76l.44-.24a3,3,0,0,0,1.15-1.15Z" style="fill:#455a64"></path><path d="M404.64,106.1l.81,1.49a10,10,0,0,0,4,4l1.5.82-1.5.82a10,10,0,0,0-4,4l-.81,1.5-.82-1.5a10,10,0,0,0-4-4l-1.5-.82,1.5-.82a10,10,0,0,0,4-4Z" style="fill:#455a64"></path><path d="M654,339.85l.82,1.5a10,10,0,0,0,4,4l1.49.82-1.49.82a10,10,0,0,0-4,4l-.82,1.49L653.2,351a10,10,0,0,0-4-4l-1.5-.82,1.5-.82a10,10,0,0,0,4-4Z" style="fill:#455a64"></path><path d="M147.35,396.08l.81,1.5a10,10,0,0,0,4,4l1.5.81-1.5.82a10,10,0,0,0-4,4l-.81,1.5-.82-1.5a10,10,0,0,0-4-4l-1.5-.82,1.5-.81a10,10,0,0,0,4-4Z" style="fill:#455a64"></path></g></svg>