<svg xmlns="http://www.w3.org/2000/svg" viewBox="0 0 500 500"><g id="freepik--background-simple--inject-249"><path d="M154.78,325.68C128.37,303.86,49,242.2,76.06,174.55,104.23,104,161.35,114,229.2,151.66c63.36,35.18,75.18-43.42,160.89,4.17,72.57,40.3,79.7,178.07-44.94,217.74C269.48,397.65,184.64,350.34,154.78,325.68Z" style="fill:#00C0AB"></path><path d="M154.78,325.68C128.37,303.86,49,242.2,76.06,174.55,104.23,104,161.35,114,229.2,151.66c63.36,35.18,75.18-43.42,160.89,4.17,72.57,40.3,79.7,178.07-44.94,217.74C269.48,397.65,184.64,350.34,154.78,325.68Z" style="fill:#fff;opacity:0.9"></path></g></svg>